<?xml version="1.0" standalone="no"?>
<svg viewBox="0 0 200 200" xmlns="http://www.w3.org/2000/svg">
  <path fill="#FF0066" d="M39.9,-72C50.9,-62.9,58.2,-50.4,61.2,-37.8C64.2,-25.2,62.9,-12.6,63.4,0.3C63.9,13.2,66.2,26.4,63.4,39.3C60.6,52.3,52.7,65,41.3,68.1C29.9,71.3,14.9,65,1,63.3C-13,61.7,-26.1,64.7,-34.8,60C-43.5,55.3,-48,42.8,-55.6,31.5C-63.2,20.2,-74,10.1,-77.1,-1.8C-80.2,-13.6,-75.5,-27.3,-68.9,-40.3C-62.3,-53.4,-53.8,-65.9,-42,-74.5C-30.2,-83.1,-15.1,-87.8,-0.3,-87.3C14.5,-86.8,29,-81.1,39.9,-72Z" transform="translate(100 100)" />
</svg>
