<?xml version="1.0" standalone="no"?><svg xmlns="http://www.w3.org/2000/svg" viewBox="0 0 1440 320"><path fill="#0099ff" fill-opacity="1" d="M0,64L15,80C30,96,60,128,90,149.3C120,171,150,181,180,197.3C210,213,240,235,270,240C300,245,330,235,360,218.7C390,203,420,181,450,186.7C480,192,510,224,540,224C570,224,600,192,630,149.3C660,107,690,53,720,53.3C750,53,780,107,810,160C840,213,870,267,900,272C930,277,960,235,990,192C1020,149,1050,107,1080,101.3C1110,96,1140,128,1170,154.7C1200,181,1230,203,1260,224C1290,245,1320,267,1350,250.7C1380,235,1410,181,1425,154.7L1440,128L1440,320L1425,320C1410,320,1380,320,1350,320C1320,320,1290,320,1260,320C1230,320,1200,320,1170,320C1140,320,1110,320,1080,320C1050,320,1020,320,990,320C960,320,930,320,900,320C870,320,840,320,810,320C780,320,750,320,720,320C690,320,660,320,630,320C600,320,570,320,540,320C510,320,480,320,450,320C420,320,390,320,360,320C330,320,300,320,270,320C240,320,210,320,180,320C150,320,120,320,90,320C60,320,30,320,15,320L0,320Z"></path></svg>